HIERARCHY
ROOT newVegas:Hips
{
	OFFSET 0.000000 96.479958 0.000000
	CHANNELS 6 Xposition Yposition Zposition Xrotation Yrotation Zrotation
	JOINT newVegas:Pelvis
	{
		OFFSET 0.000000 0.000000 0.000000
		CHANNELS 3 Xrotation Yrotation Zrotation
		JOINT newVegas:LeftUpLeg
		{
			OFFSET 18.735201 -5.666702 -4.541200
			CHANNELS 3 Xrotation Yrotation Zrotation
			JOINT newVegas:LeftLeg
			{
				OFFSET -0.021200 -31.938179 0.493100
				CHANNELS 3 Xrotation Yrotation Zrotation
				JOINT newVegas:LeftFoot
				{
					OFFSET 0.021200 -31.938179 -4.336299
					CHANNELS 3 Xrotation Yrotation Zrotation
					JOINT newVegas:LeftToeBase
					{
						OFFSET 0.943001 -26.722000 15.023500
						CHANNELS 3 Xrotation Yrotation Zrotation
						End Site
						{
							OFFSET 0.000000 30.670183 0.000000
						}
					}
				}
				JOINT newVegas:Left_PantLeg
				{
					OFFSET 0.663870 -9.044666 -1.108900
					CHANNELS 3 Xrotation Yrotation Zrotation
					End Site
					{
						OFFSET 1.415995 20.635357 0.000000
					}
				}
			}
		}
		JOINT newVegas:RightUpLeg
		{
			OFFSET -18.735201 -5.666702 -4.541200
			CHANNELS 3 Xrotation Yrotation Zrotation
			JOINT newVegas:RightLeg
			{
				OFFSET 0.018946 -31.938133 0.493100
				CHANNELS 3 Xrotation Yrotation Zrotation
				JOINT newVegas:RightFoot
				{
					OFFSET -0.018946 -31.938126 -4.336299
					CHANNELS 3 Xrotation Yrotation Zrotation
					JOINT newVegas:RightToeBase
					{
						OFFSET -0.943001 -26.722004 15.023500
						CHANNELS 3 Xrotation Yrotation Zrotation
						End Site
						{
							OFFSET 0.000000 30.670187 0.000000
						}
					}
				}
				JOINT newVegas:Right_PantLeg
				{
					OFFSET -0.661674 -9.044716 -1.108900
					CHANNELS 3 Xrotation Yrotation Zrotation
					End Site
					{
						OFFSET -1.415958 20.635269 0.000000
					}
				}
			}
		}
	}
	JOINT newVegas:Spine
	{
		OFFSET 0.000000 10.199997 -0.299500
		CHANNELS 3 Xrotation Yrotation Zrotation
		JOINT newVegas:Spine1
		{
			OFFSET 0.000000 11.900002 -1.516600
			CHANNELS 3 Xrotation Yrotation Zrotation
			JOINT newVegas:Spine2
			{
				OFFSET 0.000000 13.600006 -2.842500
				CHANNELS 3 Xrotation Yrotation Zrotation
				JOINT newVegas:Neck
				{
					OFFSET 0.000000 9.624100 -2.890100
					CHANNELS 3 Xrotation Yrotation Zrotation
					JOINT newVegas:Head
					{
						OFFSET 0.000000 14.068802 -1.351900
						CHANNELS 3 Xrotation Yrotation Zrotation
						JOINT newVegas:Hair_Back
						{
							OFFSET 0.000000 3.231903 -17.524799
							CHANNELS 3 Xrotation Yrotation Zrotation
							End Site
							{
								OFFSET 0.000000 19.849884 0.000000
							}
						}
						JOINT newVegas:Hair_Front
						{
							OFFSET 0.000000 31.260406 4.573800
							CHANNELS 3 Xrotation Yrotation Zrotation
							JOINT newVegas:Hair_Front1
							{
								OFFSET 0.000000 2.284103 11.993300
								CHANNELS 3 Xrotation Yrotation Zrotation
								JOINT newVegas:Hair_Front2
								{
									OFFSET 0.000000 2.284103 11.993300
									CHANNELS 3 Xrotation Yrotation Zrotation
									End Site
									{
										OFFSET 0.000000 12.208862 0.000000
									}
								}
							}
						}
						JOINT newVegas:Jowel
						{
							OFFSET 0.000000 -7.458206 6.864100
							CHANNELS 3 Xrotation Yrotation Zrotation
							End Site
							{
								OFFSET 0.000000 19.849884 0.000000
							}
						}
					}
				}
				JOINT newVegas:LeftShoulder
				{
					OFFSET 15.263000 10.923401 -0.547700
					CHANNELS 3 Xrotation Yrotation Zrotation
					JOINT newVegas:LeftArm
					{
						OFFSET 25.438599 -2.830597 -13.032500
						CHANNELS 3 Xrotation Yrotation Zrotation
						JOINT newVegas:LeftForeArm
						{
							OFFSET 29.960503 0.000000 0.000000
							CHANNELS 3 Xrotation Yrotation Zrotation
							JOINT newVegas:LeftHand
							{
								OFFSET 27.849251 0.000000 0.000000
								CHANNELS 3 Xrotation Yrotation Zrotation
								JOINT newVegas:LeftHandThumb1
								{
									OFFSET 4.487587 -3.305161 6.305391
									CHANNELS 3 Xrotation Yrotation Zrotation
									JOINT newVegas:LeftHandThumb2
									{
										OFFSET 5.480453 -3.164139 3.164143
										CHANNELS 3 Xrotation Yrotation Zrotation
										JOINT newVegas:LeftHandThumb3
										{
											OFFSET 5.159721 -2.978973 2.978967
											CHANNELS 3 Xrotation Yrotation Zrotation
											End Site
											{
												OFFSET 2.494507 5.926697 1.738678
											}
										}
									}
								}
								JOINT newVegas:LeftHandIndex1
								{
									OFFSET 18.578728 -0.527832 5.208049
									CHANNELS 3 Xrotation Yrotation Zrotation
									JOINT newVegas:LeftHandIndex2
									{
										OFFSET 3.192009 0.000000 0.000000
										CHANNELS 3 Xrotation Yrotation Zrotation
										JOINT newVegas:LeftHandIndex3
										{
											OFFSET 3.835129 0.000000 0.000000
											CHANNELS 3 Xrotation Yrotation Zrotation
											End Site
											{
												OFFSET -0.034599 3.816971 0.371180
											}
										}
									}
								}
								JOINT newVegas:LeftHandMiddle1
								{
									OFFSET 18.476105 0.000000 0.000000
									CHANNELS 3 Xrotation Yrotation Zrotation
									JOINT newVegas:LeftHandMiddle2
									{
										OFFSET 3.324875 0.000000 0.000000
										CHANNELS 3 Xrotation Yrotation Zrotation
										JOINT newVegas:LeftHandMiddle3
										{
											OFFSET 4.596550 0.000000 0.000000
											CHANNELS 3 Xrotation Yrotation Zrotation
											End Site
											{
												OFFSET 0.057701 4.578827 0.399218
											}
										}
									}
								}
								JOINT newVegas:LeftHandRing1
								{
									OFFSET 17.732719 0.121887 -4.201567
									CHANNELS 3 Xrotation Yrotation Zrotation
									JOINT newVegas:LeftHandRing2
									{
										OFFSET 2.733170 0.000000 0.000000
										CHANNELS 3 Xrotation Yrotation Zrotation
										JOINT newVegas:LeftHandRing3
										{
											OFFSET 3.178268 0.000000 0.000000
											CHANNELS 3 Xrotation Yrotation Zrotation
											End Site
											{
												OFFSET 0.119102 3.170624 0.185394
											}
										}
									}
								}
								JOINT newVegas:LeftHandPinky1
								{
									OFFSET 15.989624 -0.606689 -7.535461
									CHANNELS 3 Xrotation Yrotation Zrotation
									JOINT newVegas:LeftHandPinky2
									{
										OFFSET 2.538986 0.000000 0.000000
										CHANNELS 3 Xrotation Yrotation Zrotation
										JOINT newVegas:LeftHandPinky3
										{
											OFFSET 2.593102 0.000000 0.000000
											CHANNELS 3 Xrotation Yrotation Zrotation
											End Site
											{
												OFFSET -0.150902 2.584198 0.152708
											}
										}
									}
								}
							}
							JOINT newVegas:Left_Sleeve
							{
								OFFSET 0.267448 -0.649796 0.577675
								CHANNELS 3 Xrotation Yrotation Zrotation
								End Site
								{
									OFFSET 0.000000 15.991241 0.000000
								}
							}
							JOINT newVegas:Left_CapeC
							{
								OFFSET 15.715958 -8.608795 -6.935905
								CHANNELS 3 Xrotation Yrotation Zrotation
								JOINT newVegas:Left_CapeC1
								{
									OFFSET 0.000000 -8.688499 0.000000
									CHANNELS 3 Xrotation Yrotation Zrotation
									End Site
									{
										OFFSET 0.000000 8.688499 0.000000
									}
								}
							}
						}
						JOINT newVegas:Left_CapeB
						{
							OFFSET 26.118385 -8.608795 -7.079235
							CHANNELS 3 Xrotation Yrotation Zrotation
							JOINT newVegas:Left_CapeB1
							{
								OFFSET 0.000000 -8.688499 0.000000
								CHANNELS 3 Xrotation Yrotation Zrotation
								End Site
								{
									OFFSET 0.000000 8.688499 0.000000
								}
							}
						}
						JOINT newVegas:Left_CapeA
						{
							OFFSET 5.115639 -8.608795 -10.395809
							CHANNELS 3 Xrotation Yrotation Zrotation
							JOINT newVegas:Left_CapeA1
							{
								OFFSET 0.000000 -8.688499 0.000000
								CHANNELS 3 Xrotation Yrotation Zrotation
								End Site
								{
									OFFSET 0.000000 8.688499 0.000000
								}
							}
						}
					}
				}
				JOINT newVegas:RightShoulder
				{
					OFFSET -15.263000 10.923401 -0.547700
					CHANNELS 3 Xrotation Yrotation Zrotation
					JOINT newVegas:RightArm
					{
						OFFSET -25.438599 -2.830597 -13.032500
						CHANNELS 3 Xrotation Yrotation Zrotation
						JOINT newVegas:RightForeArm
						{
							OFFSET -29.960503 0.000000 0.000000
							CHANNELS 3 Xrotation Yrotation Zrotation
							JOINT newVegas:RightHand
							{
								OFFSET -27.849251 0.000000 0.000000
								CHANNELS 3 Xrotation Yrotation Zrotation
								JOINT newVegas:RightHandThumb1
								{
									OFFSET -4.487587 -3.305161 6.305391
									CHANNELS 3 Xrotation Yrotation Zrotation
									JOINT newVegas:RightHandThumb2
									{
										OFFSET -5.480453 -3.164139 3.164143
										CHANNELS 3 Xrotation Yrotation Zrotation
										JOINT newVegas:RightHandThumb3
										{
											OFFSET -5.159721 -2.978973 2.978967
											CHANNELS 3 Xrotation Yrotation Zrotation
											End Site
											{
												OFFSET -2.494507 5.926697 1.738678
											}
										}
									}
								}
								JOINT newVegas:RightHandIndex1
								{
									OFFSET -18.578728 -0.527832 5.208049
									CHANNELS 3 Xrotation Yrotation Zrotation
									JOINT newVegas:RightHandIndex2
									{
										OFFSET -3.192009 0.000000 0.000000
										CHANNELS 3 Xrotation Yrotation Zrotation
										JOINT newVegas:RightHandIndex3
										{
											OFFSET -3.835129 0.000000 0.000000
											CHANNELS 3 Xrotation Yrotation Zrotation
											End Site
											{
												OFFSET 0.034599 3.816971 0.371180
											}
										}
									}
								}
								JOINT newVegas:RightHandMiddle1
								{
									OFFSET -18.476105 0.000000 0.000000
									CHANNELS 3 Xrotation Yrotation Zrotation
									JOINT newVegas:RightHandMiddle2
									{
										OFFSET -3.324875 0.000000 0.000000
										CHANNELS 3 Xrotation Yrotation Zrotation
										JOINT newVegas:RightHandMiddle3
										{
											OFFSET -4.596550 0.000000 0.000000
											CHANNELS 3 Xrotation Yrotation Zrotation
											End Site
											{
												OFFSET -0.057701 4.578827 0.399218
											}
										}
									}
								}
								JOINT newVegas:RightHandRing1
								{
									OFFSET -17.732719 0.121887 -4.201567
									CHANNELS 3 Xrotation Yrotation Zrotation
									JOINT newVegas:RightHandRing2
									{
										OFFSET -2.733170 0.000000 0.000000
										CHANNELS 3 Xrotation Yrotation Zrotation
										JOINT newVegas:RightHandRing3
										{
											OFFSET -3.178268 0.000000 0.000000
											CHANNELS 3 Xrotation Yrotation Zrotation
											End Site
											{
												OFFSET -0.119102 3.170624 0.185394
											}
										}
									}
								}
								JOINT newVegas:RightHandPinky1
								{
									OFFSET -15.989624 -0.606689 -7.535461
									CHANNELS 3 Xrotation Yrotation Zrotation
									JOINT newVegas:RightHandPinky2
									{
										OFFSET -2.538986 0.000000 0.000000
										CHANNELS 3 Xrotation Yrotation Zrotation
										JOINT newVegas:RightHandPinky3
										{
											OFFSET -2.593102 0.000000 0.000000
											CHANNELS 3 Xrotation Yrotation Zrotation
											End Site
											{
												OFFSET 0.150902 2.584198 0.152708
											}
										}
									}
								}
							}
							JOINT newVegas:Right_CapeC
							{
								OFFSET -15.715958 -8.608795 -6.935905
								CHANNELS 3 Xrotation Yrotation Zrotation
								JOINT newVegas:Right_CapeC1
								{
									OFFSET 0.000000 -8.688499 0.000000
									CHANNELS 3 Xrotation Yrotation Zrotation
									End Site
									{
										OFFSET 0.000000 8.688499 0.000000
									}
								}
							}
							JOINT newVegas:Right_Sleeve
							{
								OFFSET -0.267448 -0.649994 0.577675
								CHANNELS 3 Xrotation Yrotation Zrotation
								End Site
								{
									OFFSET 0.000000 15.991302 0.000000
								}
							}
						}
						JOINT newVegas:Right_CapeA
						{
							OFFSET -5.115540 -8.608795 -10.395824
							CHANNELS 3 Xrotation Yrotation Zrotation
							JOINT newVegas:Right_CapeA1
							{
								OFFSET 0.000000 -8.688499 0.000000
								CHANNELS 3 Xrotation Yrotation Zrotation
								End Site
								{
									OFFSET 0.000000 8.688499 0.000000
								}
							}
						}
						JOINT newVegas:Right_CapeB
						{
							OFFSET -26.118187 -8.608795 -7.079266
							CHANNELS 3 Xrotation Yrotation Zrotation
							JOINT newVegas:Right_CapeB1
							{
								OFFSET 0.000000 -8.688499 0.000000
								CHANNELS 3 Xrotation Yrotation Zrotation
								End Site
								{
									OFFSET 0.000000 8.688499 0.000000
								}
							}
						}
					}
				}
				JOINT newVegas:Left_Collar
				{
					OFFSET 18.625099 8.655502 8.828100
					CHANNELS 3 Xrotation Yrotation Zrotation
					JOINT newVegas:Left_Collar1
					{
						OFFSET 14.783401 10.540405 -1.259500
						CHANNELS 3 Xrotation Yrotation Zrotation
						End Site
						{
							OFFSET 0.000000 18.199875 0.000000
						}
					}
				}
				JOINT newVegas:Collar_Back
				{
					OFFSET 0.000000 15.630707 -20.132601
					CHANNELS 3 Xrotation Yrotation Zrotation
					End Site
					{
						OFFSET 0.000000 22.523010 0.000000
					}
				}
				JOINT newVegas:Left_Peck
				{
					OFFSET 17.239599 -5.132599 25.482599
					CHANNELS 3 Xrotation Yrotation Zrotation
					End Site
					{
						OFFSET 0.000000 22.523010 0.000000
					}
				}
				JOINT newVegas:Right_Peck
				{
					OFFSET -17.239599 -5.132202 25.482599
					CHANNELS 3 Xrotation Yrotation Zrotation
					End Site
					{
						OFFSET 0.000000 22.523010 0.000000
					}
				}
				JOINT newVegas:Right_Collar
				{
					OFFSET -18.625099 8.655792 8.828100
					CHANNELS 3 Xrotation Yrotation Zrotation
					JOINT newVegas:Right_Collar1
					{
						OFFSET -14.783401 10.539993 -1.259500
						CHANNELS 3 Xrotation Yrotation Zrotation
						End Site
						{
							OFFSET 0.000000 18.199631 0.000000
						}
					}
				}
			}
		}
		JOINT newVegas:Belly
		{
			OFFSET 0.000000 -6.540398 9.014299
			CHANNELS 3 Xrotation Yrotation Zrotation
			End Site
			{
				OFFSET 0.000000 11.566666 0.000000
			}
		}
	}
	JOINT newVegas:ElvisFacialAnim_Joint
	{
		OFFSET 1.000000 -95.330101 -8.825800
		CHANNELS 3 Xrotation Yrotation Zrotation
		End Site
		{
			OFFSET 0.000000 35.315800 0.000000
		}
	}
}
MOTION
Frames: 4
Frame Time: 0.033333
-0.261822 76.881592 4.847984 -15.408941 -8.067211 -2.423785 0.000001 0.000001 0.000000 -50.195873 -7.261584 2.751708 59.888314 -21.404071 9.136909 5.175058 7.120834 -18.752711 0.000000 0.000001 0.000000 -0.000000 0.000000 0.000002 17.273050 -14.643249 -14.462791 58.997091 6.288305 -7.026998 -52.820892 -2.090160 13.574131 -0.000000 -0.000001 0.000000 0.000003 0.000001 -0.000001 4.587903 0.966352 1.624386 -2.199014 1.891128 0.743505 -2.158365 1.905959 0.749921 -2.466328 1.189356 0.559015 -2.466322 1.189356 0.559015 -0.000001 -0.000000 0.000000 -2.466315 1.189356 0.559015 -2.466303 1.189357 0.559014 0.000000 0.000000 0.000000 -0.000001 -0.000000 -0.000000 -7.002141 -24.882227 -0.785772 -37.902297 -41.607498 -49.920415 57.969598 -22.811573 26.797074 4.220578 -12.924418 56.234061 -13.461651 -6.303068 27.913329 7.980998 33.305392 2.907232 0.000001 0.000001 -0.000003 8.650476 -0.603155 -26.181881 -0.177043 0.259112 -20.600686 -0.000003 0.000003 -0.000005 8.849324 0.441205 -31.807207 0.202711 0.630810 -15.954557 0.000001 0.000001 0.000002 8.850615 0.293226 -20.710793 0.024374 0.280696 -22.564674 -0.000001 0.000001 -0.000000 9.890582 3.682262 -23.246496 0.158854 0.237099 -23.613820 0.000001 -0.000005 -0.000001 0.000001 0.000000 0.000002 0.000001 0.000000 0.000002 0.000000 0.000001 0.000002 -0.000001 -0.000001 0.000000 -0.000001 -0.000001 0.000000 -0.000001 -0.000001 0.000000 -0.000001 -0.000001 0.000000 -8.602361 33.859416 8.297210 -15.631069 47.575006 23.260004 61.385751 23.095875 -27.985583 4.052527 -10.922857 -40.646340 -13.899811 12.016628 -32.431504 7.566994 -31.900532 -2.460452 0.000000 0.000001 0.000001 8.643234 0.632982 0.395105 -0.128481 -0.299827 11.214996 0.000000 -0.000002 -0.000000 8.793008 -0.255132 0.730498 0.356659 -0.462579 20.359894 0.000001 -0.000001 -0.000003 8.828831 -0.196154 4.449432 0.112034 -0.088462 25.973818 -0.000002 -0.000001 -0.000004 9.889368 -3.679183 22.536554 0.226304 -0.074860 27.023024 -0.000001 0.000000 -0.000004 0.000002 0.000001 -0.000000 0.000002 -0.000000 0.000001 0.000002 0.000001 -0.000000 -0.000003 0.000000 -0.000000 -0.000003 0.000000 -0.000000 -0.000003 0.000000 -0.000000 -0.000003 -0.000000 -0.000000 -0.000000 0.000000 -0.000000 -0.000000 0.000000 -0.000000 -0.000000 0.000000 -0.000000 -0.000000 0.000000 -0.000000 -0.000000 0.000000 -0.000000 -0.000000 0.000000 -0.000000 -0.000000 0.000000 -0.000000 0.000000 0.000000 -0.000000 0.000001 0.000001 0.000000 
-0.413918 76.935646 4.853424 -15.392176 -8.851575 -2.543973 -0.000000 -0.000000 0.000000 -49.968260 -7.047890 3.371087 60.014256 -21.385392 9.037392 4.761692 7.153758 -18.674931 0.000000 0.000000 0.000000 -0.000001 0.000001 0.000003 17.153038 -13.714188 -14.236574 59.048119 5.522799 -7.032554 -52.862966 -2.028219 13.782082 0.000001 0.000000 0.000000 0.000001 0.000001 -0.000002 3.241234 0.835838 1.716202 -0.967856 1.750547 0.777233 -0.564292 1.750644 0.820975 -2.300215 1.171981 0.995165 -2.300222 1.171980 0.995165 0.000001 0.000000 -0.000000 -2.300207 1.171981 0.995165 -2.300177 1.171980 0.995163 0.000003 0.000000 -0.000001 0.000001 0.000000 -0.000000 -6.621704 -24.921400 -0.243144 -39.495695 -41.547163 -49.587986 57.970568 -22.481059 26.048105 5.636215 -13.806469 56.800461 -13.461653 -6.303068 27.913332 7.980997 33.305389 2.907236 0.000003 -0.000001 -0.000001 8.650475 -0.603158 -26.181870 -0.177041 0.259119 -20.600680 -0.000001 0.000003 -0.000003 8.850652 0.443338 -32.239289 0.203487 0.631882 -16.386643 0.000003 0.000001 0.000001 8.850619 0.293225 -20.710792 0.024373 0.280698 -22.564677 -0.000001 0.000003 -0.000000 9.890583 3.682260 -23.246494 0.158850 0.237104 -23.613820 0.000000 -0.000005 -0.000000 0.000002 0.000000 -0.000001 0.000002 0.000000 -0.000001 0.000001 0.000000 -0.000001 -0.000002 0.000000 -0.000000 -0.000002 0.000000 -0.000000 -0.000002 0.000000 -0.000000 -0.000003 0.000000 -0.000000 -8.370029 34.065948 7.715914 -15.947672 49.041913 21.887273 61.363301 23.116128 -25.882355 1.539716 -12.597708 -42.673905 -13.899809 12.016623 -32.431507 7.566996 -31.900535 -2.460453 -0.000001 -0.000000 -0.000001 8.643230 0.632945 0.427536 -0.128397 -0.299907 11.245152 -0.000002 -0.000003 -0.000001 8.792988 -0.255335 0.765619 0.356662 -0.462587 20.392377 0.000002 0.000002 -0.000003 8.828864 -0.196391 4.487689 0.111998 -0.088582 26.008891 0.000004 0.000001 -0.000004 9.889426 -3.679254 22.580447 0.226350 -0.074951 27.063023 -0.000001 0.000003 -0.000002 -0.000001 0.000001 -0.000003 -0.000001 0.000001 -0.000003 -0.000001 0.000001 -0.000003 -0.000002 0.000000 -0.000001 -0.000002 0.000000 -0.000001 -0.000002 0.000000 -0.000001 -0.000002 -0.000000 -0.000001 0.000000 -0.000000 0.000000 0.000000 -0.000000 0.000000 0.000000 -0.000000 0.000000 0.000000 -0.000000 0.000000 0.000000 -0.000000 0.000000 0.000000 -0.000000 0.000000 0.000000 -0.000000 0.000000 -0.000001 0.000000 0.000000 -0.000000 -0.000000 0.000000 
-0.579017 77.018814 4.851151 -15.376187 -9.622036 -2.671433 0.000001 -0.000001 0.000000 -49.641784 -6.850357 4.314701 60.135574 -21.236385 8.887510 4.341279 7.177934 -18.657625 -0.000000 0.000000 0.000000 -0.000000 -0.000000 0.000000 16.258096 -12.018964 -14.003150 60.100829 4.414586 -7.094590 -52.571041 -1.826573 14.270629 -0.000000 0.000002 -0.000000 -0.000003 -0.000000 -0.000003 1.613570 0.663569 2.213695 0.689472 1.547022 0.736649 1.589419 1.508946 0.827270 -2.323309 1.238569 1.116623 -2.323318 1.238568 1.116628 -0.000001 -0.000000 0.000000 -2.323110 1.238561 1.116621 -2.323478 1.238583 1.116625 0.000004 0.000000 0.000000 -0.000001 -0.000000 -0.000000 -6.136320 -25.168933 0.526286 -41.284508 -41.052237 -48.336958 58.494717 -22.210727 25.620839 7.291463 -15.046787 57.364375 -13.461650 -6.303071 27.913330 7.980999 33.305389 2.907234 -0.000000 0.000003 -0.000003 8.650476 -0.603164 -26.181876 -0.177047 0.259118 -20.600686 -0.000001 0.000003 -0.000002 8.852460 0.446094 -32.797797 0.204455 0.633197 -16.945102 0.000004 -0.000001 0.000000 8.850621 0.293220 -20.710792 0.024374 0.280696 -22.564671 -0.000003 0.000001 -0.000000 9.890583 3.682258 -23.246491 0.158856 0.237104 -23.613818 0.000001 -0.000003 -0.000002 0.000002 0.000000 0.000001 0.000002 0.000000 0.000001 0.000001 0.000001 0.000001 -0.000001 0.000000 -0.000000 -0.000001 0.000000 -0.000000 -0.000001 0.000000 -0.000000 -0.000001 0.000000 -0.000000 -8.003955 34.460299 6.799452 -16.111303 51.594723 20.041764 61.044140 21.952682 -23.157254 -2.451863 -14.344582 -45.433701 -13.899807 12.016622 -32.431507 7.566998 -31.900539 -2.460452 0.000002 -0.000001 -0.000002 8.643259 0.632851 0.502119 -0.128243 -0.300169 11.314472 0.000001 -0.000001 -0.000002 8.793052 -0.255790 0.846189 0.356633 -0.462592 20.466969 0.000001 -0.000002 0.000001 8.828971 -0.196953 4.575262 0.111887 -0.088956 26.089547 0.000002 0.000001 -0.000001 9.889605 -3.679509 22.680782 0.226354 -0.075021 27.154549 -0.000002 0.000003 -0.000001 0.000002 0.000002 -0.000001 0.000002 0.000001 -0.000001 0.000002 0.000002 -0.000001 0.000001 0.000001 -0.000000 0.000001 0.000000 0.000001 0.000001 0.000001 -0.000000 0.000001 -0.000000 0.000001 0.000000 -0.000000 0.000000 0.000000 -0.000000 0.000000 0.000000 -0.000000 0.000000 0.000000 -0.000000 0.000000 0.000000 -0.000000 0.000000 0.000000 -0.000000 0.000000 0.000000 -0.000000 0.000000 -0.000000 -0.000000 0.000000 0.000001 -0.000001 0.000000 
-0.734961 77.165459 4.839626 -15.427212 -10.540279 -2.806020 -0.000001 0.000001 0.000000 -48.987998 -7.114952 4.838706 59.996491 -20.552189 8.821402 3.877201 7.242420 -18.975381 -0.000000 -0.000001 0.000000 -0.000000 -0.000002 0.000001 15.467950 -10.611667 -13.878553 60.927514 3.641685 -7.178247 -52.162404 -1.634790 14.553979 -0.000000 -0.000004 0.000000 -0.000000 0.000001 -0.000000 1.554106 0.662272 2.520104 1.075160 1.636007 0.877218 2.031426 1.557706 0.986992 -2.008674 1.260095 1.192498 -2.008676 1.260091 1.192495 -0.000001 -0.000000 -0.000000 -2.008666 1.260116 1.192486 -2.008614 1.260080 1.192494 0.000001 0.000000 0.000000 -0.000001 -0.000000 -0.000000 -6.100598 -25.396194 0.800359 -41.179586 -40.413560 -47.354436 59.266808 -21.717169 25.711730 7.170138 -15.850168 58.103866 -13.461651 -6.303067 27.913332 7.980999 33.305386 2.907226 -0.000001 0.000000 -0.000001 8.650476 -0.603153 -26.181872 -0.177041 0.259116 -20.600682 -0.000001 0.000003 -0.000004 8.852503 0.446154 -32.803196 0.204452 0.633210 -16.950552 0.000003 -0.000003 0.000001 8.850618 0.293227 -20.710792 0.024379 0.280696 -22.564677 0.000001 -0.000002 0.000003 9.890585 3.682269 -23.246501 0.158853 0.237101 -23.613823 -0.000007 0.000000 -0.000002 -0.000001 0.000002 -0.000001 -0.000001 0.000002 -0.000001 -0.000002 0.000002 -0.000001 0.000001 0.000000 -0.000000 0.000001 0.000000 0.000000 0.000001 0.000000 -0.000000 0.000001 -0.000000 -0.000000 -7.786291 34.951027 6.175805 -14.537190 53.491043 19.933741 60.912515 17.714304 -23.342971 -5.540748 -13.830516 -45.706236 -13.899809 12.016625 -32.431504 7.566996 -31.900535 -2.460455 0.000002 0.000000 0.000001 8.643222 0.632655 0.627801 -0.128060 -0.300639 11.431624 0.000001 0.000002 -0.000000 8.793066 -0.256638 0.981691 0.356432 -0.462485 20.592546 -0.000001 -0.000001 -0.000001 8.829024 -0.197860 4.722146 0.111825 -0.089454 26.225083 0.000003 0.000001 0.000000 9.889748 -3.679922 22.848246 0.226299 -0.075174 27.307704 -0.000000 0.000005 0.000004 0.000002 0.000001 -0.000002 0.000002 -0.000000 -0.000001 0.000002 0.000001 -0.000003 0.000001 0.000000 0.000001 0.000001 0.000000 0.000001 0.000001 0.000000 0.000001 0.000001 -0.000000 0.000001 -0.000001 0.000000 0.000000 -0.000001 0.000000 0.000000 -0.000001 0.000000 0.000000 -0.000001 0.000000 0.000000 -0.000001 0.000000 0.000000 -0.000001 0.000000 0.000000 -0.000001 0.000000 0.000000 -0.000001 0.000001 -0.000000 -0.000001 0.000001 0.000000 
